<svg xmlns="http://www.w3.org/2000/svg" xmlns:xlink="http://www.w3.org/1999/xlink" width="130.019" height="42.954" viewBox="0 0 130.019 42.954">
  <defs>
    <linearGradient id="linear-gradient" x1="0.5" y1="1" x2="0.5" gradientUnits="objectBoundingBox">
      <stop offset="0" stop-color="#172d67"/>
      <stop offset="0.036" stop-color="#182f6b"/>
      <stop offset="0.281" stop-color="#204088"/>
      <stop offset="0.525" stop-color="#274d9d"/>
      <stop offset="0.764" stop-color="#2a54a9"/>
      <stop offset="0.996" stop-color="#2c57ae"/>
    </linearGradient>
    <linearGradient id="linear-gradient-5" x1="0.865" y1="0.567" x2="0.273" y2="0.419" gradientUnits="objectBoundingBox">
      <stop offset="0" stop-color="#fff"/>
      <stop offset="0.17" stop-color="#fff" stop-opacity="0.776"/>
      <stop offset="0.396" stop-color="#fff" stop-opacity="0.502"/>
      <stop offset="0.601" stop-color="#fff" stop-opacity="0.286"/>
      <stop offset="0.776" stop-color="#fff" stop-opacity="0.129"/>
      <stop offset="0.914" stop-color="#fff" stop-opacity="0.035"/>
      <stop offset="0.999" stop-color="#fff" stop-opacity="0"/>
    </linearGradient>
    <linearGradient id="linear-gradient-8" x1="0.5" y1="1" x2="0.5" gradientUnits="objectBoundingBox">
      <stop offset="0" stop-color="#640000"/>
      <stop offset="0.8" stop-color="#c80000"/>
      <stop offset="0.872" stop-color="#ca0000"/>
      <stop offset="0.916" stop-color="#d30000"/>
      <stop offset="0.954" stop-color="#e10000"/>
      <stop offset="0.987" stop-color="#f60000"/>
      <stop offset="0.998" stop-color="red"/>
    </linearGradient>
    <linearGradient id="linear-gradient-9" x1="153.773" y1="-39.778" x2="152.773" y2="-39.778" xlink:href="#linear-gradient-5"/>
    <linearGradient id="linear-gradient-10" x1="91.268" y1="-90.086" x2="92.238" y2="-90.487" xlink:href="#linear-gradient-5"/>
  </defs>
  <g id="Group_33980" data-name="Group 33980" transform="translate(-99.213 -163.84)">
    <g id="Group_33979" data-name="Group 33979" transform="translate(99.213 163.84)">
      <g id="Group_33977" data-name="Group 33977" transform="translate(0 1.229)">
        <path id="Path_30507" data-name="Path 30507" d="M198.492,165.18h-5.323a2.67,2.67,0,0,0-2.58,1.983l-1.524,5.737H183.12a13.13,13.13,0,0,0-12.03,7.444q-2.741,6.083-.829,10.854a7.9,7.9,0,0,0,2.592,3.5,8.152,8.152,0,0,0,5.059,1.5l12.905.077C191.131,195.013,198.492,165.18,198.492,165.18Zm-18.345,24.429q-4.747-.069-3.18-5.439a6.269,6.269,0,0,1,2.235-3.318,7.04,7.04,0,0,1,4.471-1.545h3.78l-2.571,10.3h-4.734Z" transform="translate(-105.02 -165.18)" fill="url(#linear-gradient)"/>
        <path id="Path_30508" data-name="Path 30508" d="M103.036,165.2a2.668,2.668,0,0,0-2.592,2.036l-1.231,5.04h10.234l-6.04,24.015h5.218a2.732,2.732,0,0,0,2.65-2.071l5.476-21.943h7.882a2.649,2.649,0,0,0,2.572-2.013l1.253-5.063Z" transform="translate(-99.213 -165.182)" fill="url(#linear-gradient)"/>
        <path id="Path_30509" data-name="Path 30509" d="M132.947,173.546h8.86l-1.193,4.672a2.672,2.672,0,0,1-2.589,2.012h-3.4a1.925,1.925,0,0,0-1.268.483,2.336,2.336,0,0,0-.738,1.222l-3.162,12.986a2.7,2.7,0,0,1-2.625,2.063h-5.344l4.079-16.963C126.632,176.242,129.231,173.546,132.947,173.546Z" transform="translate(-101.054 -165.871)" fill="url(#linear-gradient)"/>
        <path id="Path_30510" data-name="Path 30510" d="M224.7,196.293l5.808-23.554h7.6L232.9,194.2a2.742,2.742,0,0,1-2.665,2.1Zm7.721-31.113h5.821a1.365,1.365,0,0,1,1.321,1.705l-.989,3.826h-7.582Z" transform="translate(-109.583 -165.18)" fill="url(#linear-gradient)"/>
        <path id="Path_30511" data-name="Path 30511" d="M173.361,195.527a8.247,8.247,0,0,0,4.872,1.369l5.315.031,5.847-23.336h-.007v0h-5.946a14.687,14.687,0,0,0-2.2.168ZM184.017,180h3.757L185.2,190.3h-4.734q-4.747-.069-3.18-5.439a6.274,6.274,0,0,1,2.235-3.319A7.044,7.044,0,0,1,183.994,180Z" transform="translate(-105.341 -165.875)" opacity="0.6" fill="url(#linear-gradient-5)" style="mix-blend-mode: overlay;isolation: isolate"/>
        <path id="Path_30512" data-name="Path 30512" d="M227.031,165.18h-5.323a2.67,2.67,0,0,0-2.58,1.983l-1.524,5.737h-5.946a13.13,13.13,0,0,0-12.03,7.444q-2.741,6.083-.829,10.854a7.9,7.9,0,0,0,2.592,3.5,8.152,8.152,0,0,0,5.059,1.5l12.905.077C219.67,195.013,227.031,165.18,227.031,165.18Zm-18.345,24.429q-4.747-.069-3.18-5.439a6.269,6.269,0,0,1,2.235-3.318,7.042,7.042,0,0,1,4.471-1.545h3.78l-2.571,10.3h-4.734Z" transform="translate(-107.378 -165.18)" fill="url(#linear-gradient)"/>
        <path id="Path_30513" data-name="Path 30513" d="M201.9,195.527a8.247,8.247,0,0,0,4.872,1.369l5.315.031,5.847-23.336h-.007v0H211.98a14.687,14.687,0,0,0-2.2.168ZM212.556,180h3.757l-2.571,10.3h-4.734q-4.747-.069-3.18-5.439a6.274,6.274,0,0,1,2.235-3.319A7.044,7.044,0,0,1,212.533,180Z" transform="translate(-107.699 -165.875)" opacity="0.6" fill="url(#linear-gradient-5)" style="mix-blend-mode: overlay;isolation: isolate"/>
      </g>
      <g id="Group_33978" data-name="Group 33978" transform="translate(18.971)">
        <path id="Path_30514" data-name="Path 30514" d="M162.861,174.336v-10.5l-42.968,42.949,8.579.005a6.647,6.647,0,0,0,4.709-1.948l21.659-21.658v9.652a3.382,3.382,0,0,0,3.381,3.382h4.643V174.334Z" transform="translate(-119.893 -163.84)" fill="url(#linear-gradient-8)"/>
        <path id="Path_30515" data-name="Path 30515" d="M157.261,183.91l-8.072,8.072V180.647l8.072-8.068Z" transform="translate(-122.314 -164.562)" opacity="0.6" fill="url(#linear-gradient-9)" style="mix-blend-mode: overlay;isolation: isolate"/>
      </g>
      <path id="Path_30516" data-name="Path 30516" d="M166.735,176.184" transform="translate(-104.793 -164.86)" fill="#fff"/>
      <path id="Path_30517" data-name="Path 30517" d="M126.233,172.273l-7.918,0L120.1,165.2h9.938l-1.255,5.072A2.627,2.627,0,0,1,126.233,172.273Z" transform="translate(-100.792 -163.953)" opacity="0.6" fill="url(#linear-gradient-10)" style="mix-blend-mode: overlay;isolation: isolate"/>
    </g>
  </g>
</svg>
